<?xml version="1.0" encoding="UTF-8"?>
<svg version="1.1" xmlns="http://www.w3.org/2000/svg" width="371" height="319">
<path d="M0 0 C122.43 0 244.86 0 371 0 C371 105.27 371 210.54 371 319 C248.57 319 126.14 319 0 319 C0 213.73 0 108.46 0 0 Z " fill="#7E6EE5" transform="translate(0,0)"/>
<path d="M0 0 C2.48168945 1.17651367 2.48168945 1.17651367 5.11328125 2.66796875 C6.10271729 3.22492432 7.09215332 3.78187988 8.11157227 4.35571289 C9.69603149 5.26244751 9.69603149 5.26244751 11.3125 6.1875 C12.40812256 6.80810303 13.50374512 7.42870605 14.63256836 8.06811523 C37.39376067 20.99894633 37.39376067 20.99894633 46.49462891 26.55834961 C48.93391852 28.03755087 48.93391852 28.03755087 51.43896484 28.99047852 C53.91889936 30.09531588 55.31171621 30.85978006 57 33 C57.98899049 37.97545514 57.75029832 42.76583242 57.5 47.8125 C57.335 52.494375 57.17 57.17625 57 62 C72.18 62 87.36 62 103 62 C101.53195771 66.40412687 100.32284118 69.47882978 98.05078125 73.359375 C97.4578125 74.37902344 96.86484375 75.39867188 96.25390625 76.44921875 C95.61324219 77.53847656 94.97257813 78.62773438 94.3125 79.75 C93.63743361 80.90720972 92.96296538 82.06476857 92.2890625 83.22265625 C90.88984195 85.62570582 89.48807065 88.0272392 88.08447266 90.42773438 C84.86550588 95.93786891 81.68491796 101.47014243 78.5 107 C77.26315162 109.14330464 76.02617168 111.28653338 74.7890625 113.4296875 C72.50016014 117.39671984 70.21401189 121.36531202 67.93145752 125.33599854 C66.90724335 127.11749578 65.88242349 128.89864322 64.85742188 130.6796875 C63.57366625 132.91076625 62.29104061 135.14249573 61.00976562 137.375 C57.77798665 142.98865365 54.47428702 148.53291438 51 154 C46.89682943 152.63227648 46.43312577 150.73272588 44.34765625 146.98828125 C44.00625107 146.38243698 43.66484589 145.77659271 43.31309509 145.15238953 C42.22082757 143.2105061 41.14123853 141.26192604 40.0625 139.3125 C38.98502509 137.38231585 37.90493258 135.45364241 36.82261658 133.52616882 C35.83536138 131.76532582 34.85511199 130.00056027 33.87524414 128.2355957 C32.03124925 125.05391828 30.07234117 122.03520659 28 119 C27.17274414 119.47945068 26.34548828 119.95890137 25.49316406 120.45288086 C22.41722696 122.23386666 19.33760306 124.00839034 16.25683594 125.78100586 C14.92509477 126.54845816 13.59435388 127.31764898 12.26464844 128.08862305 C10.35092612 129.19780964 8.4336695 130.30065224 6.515625 131.40234375 C5.92380432 131.74716293 5.33198364 132.09198212 4.722229 132.44725037 C-1.25101761 135.86156947 -1.25101761 135.86156947 -4 136 C-6.6628418 134.89526367 -6.6628418 134.89526367 -9.69921875 133.16796875 C-10.81780273 132.53906738 -11.93638672 131.91016602 -13.08886719 131.26220703 C-14.2886353 130.57102643 -15.48817502 129.87944923 -16.6875 129.1875 C-17.91647153 128.48980474 -19.14596692 127.79303145 -20.37597656 127.09716797 C-23.92754171 125.08224797 -27.46504768 123.04392822 -31 121 C-32.3305542 120.23212158 -32.3305542 120.23212158 -33.68798828 119.44873047 C-42.94299643 114.09056786 -42.94299643 114.09056786 -45.609375 112.30297852 C-48.13642593 110.81183549 -48.13642593 110.81183549 -51.765625 109.92944336 C-56.59355749 108.29606491 -60.25471503 106.43295437 -63 102 C-65.70734847 91.59746667 -64.86830304 80.39857008 -64.55456543 69.74597168 C-64.4818218 66.50180099 -64.49836803 63.26066841 -64.51636505 60.01592731 C-64.52559475 56.88297232 -64.48915658 53.75187616 -64.43797302 50.61937523 C-64.41696955 49.12563937 -64.40749901 47.631693 -64.41004944 46.13781166 C-64.38005608 34.58503421 -64.38005608 34.58503421 -61.12060547 30.84146118 C-58.81051853 29.26748673 -56.56084674 28.11105582 -54 27 C-52.93394531 26.37319336 -51.86789063 25.74638672 -50.76953125 25.10058594 C-49.79371094 24.56723633 -48.81789063 24.03388672 -47.8125 23.484375 C-46.15758545 22.57413574 -46.15758545 22.57413574 -44.46923828 21.64550781 C-43.32438965 21.01999023 -42.17954102 20.39447266 -41 19.75 C-38.59989953 18.43008787 -36.20191324 17.10637507 -33.8046875 15.78125 C-33.21807343 15.45715149 -32.63145935 15.13305298 -32.02706909 14.7991333 C-19.44649946 7.8955555 -19.44649946 7.8955555 -7.3671875 0.171875 C-4.33820383 -1.32762187 -3.21936219 -0.89170125 0 0 Z " fill="#FDFDFE" transform="translate(159,29)"/>
<path d="M0 0 C41.22222222 0 41.22222222 0 49 7 C52.90799948 12.03926249 53.64379294 16.06353848 53.3828125 22.4140625 C52.73063957 26.81955718 50.88484292 29.53350026 47.3984375 32.24609375 C45.97122584 33.223497 44.48924121 34.11999383 43 35 C43.53625 35.226875 44.0725 35.45375 44.625 35.6875 C49.13947176 38.18233965 53.17428599 41.06973083 55 46 C55.82811267 53.56633469 56.31898317 61.18983359 51.49609375 67.48828125 C49.21575238 69.7924382 46.8295909 71.4346944 44 73 C43.34 73.391875 42.68 73.78375 42 74.1875 C30.45067889 78.8794117 5.88879421 76 0 76 C0 50.92 0 25.84 0 0 Z " fill="#FBFAFE" transform="translate(225,206)"/>
<path d="M0 0 C23.1 0 46.2 0 70 0 C66.02604453 7.94791095 62.01248757 15.62959967 57.5 23.25 C56.27852926 25.32805648 55.05717896 27.40618376 53.8359375 29.484375 C53.21041992 30.54591797 52.58490234 31.60746094 51.94042969 32.70117188 C48.65225684 38.2912312 45.38999403 43.89638254 42.125 49.5 C40.94022036 51.53131777 39.75533551 53.56257419 38.5703125 55.59375 C38.07289551 56.44646484 37.57547852 57.29917969 37.06298828 58.17773438 C36.53680908 59.07975586 36.53680908 59.07975586 36 60 C31.66251002 58.55417001 30.70632532 55.28165431 28.6875 51.4375 C27.79937544 49.79291806 26.90860467 48.14976326 26.015625 46.5078125 C25.53416016 45.62125977 25.05269531 44.73470703 24.55664062 43.82128906 C21.76901134 38.76892959 18.85207566 33.79236839 15.9375 28.8125 C15.34267822 27.79389893 14.74785645 26.77529785 14.13500977 25.72583008 C11.48687239 21.20206556 8.82368479 16.68908442 6.10546875 12.20703125 C5.68080322 11.50666748 5.2561377 10.80630371 4.81860352 10.0847168 C4.04619355 8.81653623 3.2696044 7.55088767 2.48803711 6.28833008 C0 2.21606852 0 2.21606852 0 0 Z " fill="#6D7EE7" transform="translate(174,102)"/>
<path d="M0 0 C4.00949222 3.56978954 7.73721464 7.66823961 9 13 C9 14.98 9 16.96 9 19 C5.04 19 1.08 19 -3 19 C-3.495 16.89625 -3.495 16.89625 -4 14.75 C-5.2278055 11.08964087 -6.2629749 9.28768547 -9.6875 7.4375 C-13.98956077 5.71351241 -17.40124562 5.47227409 -22 6 C-25.58552881 7.63687185 -26.79315055 8.68972583 -29 12 C-29.5759307 16.36061819 -29.41858325 18.36281428 -26.98046875 22.07421875 C-23.81867977 25.6618379 -20.41507469 26.46722504 -15.875 27.5 C-6.98661035 29.82061875 3.04584733 32.59948025 8 41 C10.85228264 47.12248215 11.10032232 53.81459676 9.3828125 60.34765625 C7.01671851 65.78129688 3.10951643 69.13414576 -2 72 C-11.20273737 75.49069349 -22.55794511 75.30374269 -31.81640625 72.03515625 C-37.8650653 69.16772396 -41.41130903 65.09813767 -44.2734375 59.125 C-45 57 -45 57 -46 51 C-41.71 51 -37.42 51 -33 51 C-29.125 58.625 -29.125 58.625 -28 62 C-26.06381575 62.67156616 -26.06381575 62.67156616 -24 63 C-23.34 63.33 -22.68 63.66 -22 64 C-16.63237273 64.5350086 -12.30068563 64.66175234 -7.4375 62.1875 C-4.30558452 59.37680662 -3.07986965 57.86259219 -2.6875 53.625 C-3.03455903 49.5991153 -3.31861088 48.00640598 -6 45 C-10.94415336 41.95223423 -16.4299319 40.58827194 -22 39.125 C-29.77344828 36.96757429 -35.3001061 34.1608514 -40.5625 28 C-43.21929353 22.45162653 -42.90421991 15.9390808 -42 10 C-39.02433985 3.36590836 -33.55303459 -0.5497818 -26.9375 -3.25 C-17.91701991 -5.44524958 -7.95922323 -5.01291428 0 0 Z " fill="#FCFAFE" transform="translate(124,209)"/>
<path d="M0 0 C5.75348363 6.07312161 7.38496711 11.8815659 8 20 C4.37 20 0.74 20 -3 20 C-3.35191406 19.18015625 -3.70382813 18.3603125 -4.06640625 17.515625 C-7.13387867 10.82004552 -9.04051678 6.75753109 -16 4 C-21.52457118 2.15847627 -26.91005661 2.1830145 -32.25 4.625 C-38.88255728 8.39619559 -41.88230143 13.93146558 -44 21 C-44.18433594 21.59425781 -44.36867187 22.18851563 -44.55859375 22.80078125 C-46.6455249 33.19850018 -45.45805135 44.18769682 -39.609375 53.125 C-36.09024672 57.57021467 -32.47010242 60.53264614 -26.6796875 61.3125 C-19.87866233 61.64527187 -14.67305764 60.03977184 -9.4140625 55.6875 C-7.61879162 53.54507729 -6.79568536 51.42302666 -5.8125 48.8125 C-5.214375 47.224375 -4.61625 45.63625 -4 44 C-0.04 44 3.92 44 8 44 C7.70921754 51.85112648 4.75461323 57.74949446 -0.44921875 63.640625 C-4.11522373 66.97518295 -8.33445293 68.60222476 -13 70 C-13.58136719 70.18433594 -14.16273438 70.36867188 -14.76171875 70.55859375 C-23.8795731 72.35670464 -34.07754109 72.10206354 -42 67 C-43.05960938 66.34644531 -43.05960938 66.34644531 -44.140625 65.6796875 C-53.20341196 59.5371319 -56.89653752 50.52862132 -59 40 C-60.52268071 25.96171068 -57.83901437 14.2207847 -49 3 C-35.4195755 -10.12685433 -15.17986335 -10.1199089 0 0 Z " fill="#FCFAFE" transform="translate(202,212)"/>
<path d="M0 0 C3.135 -0.0825 6.27 -0.165 9.5 -0.25 C10.47130859 -0.28641602 11.44261719 -0.32283203 12.44335938 -0.36035156 C19.44276455 -0.44862722 24.68289209 1.09753058 30 5.75 C32.08714157 10.44606853 31.48304493 14.65255889 29.8125 19.3125 C27.75940098 22.35675028 26.26829896 23.38439882 23 25 C20.32104492 25.34057617 20.32104492 25.34057617 17.48046875 25.29296875 C16.55903076 25.28547607 15.63759277 25.2779834 14.68823242 25.27026367 C13.53299072 25.24295166 12.37774902 25.21563965 11.1875 25.1875 C7.495625 25.125625 3.80375 25.06375 0 25 C0 16.75 0 8.5 0 0 Z " fill="#985CE3" transform="translate(237,247)"/>
<path d="M0 0 C2.97 -0.0825 5.94 -0.165 9 -0.25 C10.37865234 -0.30462402 10.37865234 -0.30462402 11.78515625 -0.36035156 C17.62882573 -0.43803328 22.17112928 0.57377123 27 4 C28.16297973 6.32595946 28.16600691 7.78723231 28.1875 10.375 C28.20167969 11.14585937 28.21585937 11.91671875 28.23046875 12.7109375 C27.9555874 15.44111494 27.65960896 16.7902193 26 19 C20.36163277 22.26277428 15.46104533 22.37577418 9.0625 22.1875 C4.5765625 22.0946875 4.5765625 22.0946875 0 22 C0 14.74 0 7.48 0 0 Z " fill="#8C64E4" transform="translate(237,216)"/>
<path d="M0 0 C3.3 0 6.6 0 10 0 C8.68 1.65 7.36 3.3 6 5 C2.83884224 3.63016497 2.0072908 3.0109362 0 0 Z " fill="#6CD0F3" transform="translate(359,0)"/>
</svg>
